<?xml version="1.0" encoding="UTF-8"?>
<svg id="Capa_1" xmlns="http://www.w3.org/2000/svg" version="1.1" viewBox="0 0 97.64 98.92">
  <!-- Generator: Adobe Illustrator 29.7.1, SVG Export Plug-In . SVG Version: 2.1.1 Build 8)  -->
  <defs>
    <style>
      .st0 {
        fill: #d50000;
      }

      .st1 {
        fill: #e5e5e5;
      }
    </style>
  </defs>
  <g id="Capa_11" data-name="Capa_1">
    <ellipse class="st1" cx="48.82" cy="49.46" rx="48.82" ry="49.46"/>
    <path class="st0" d="M62.18,3.16c.11.14-.25.43-.35.5-.47.35-1.23.58-1.78.95-.78.52-2.37,1.69-1.34,2.64,4.45,2.01,9.14,4.1,12.41,7.84,1.91.02,3.83.1,5.72.34-.54-1.99.53-1.83,2.03-1.52,5.8,1.23,11.69,10.96,13.9,16.09.26.6.6,1.26.66,1.89-.24.24-2.27-1.45-2.6-1.66-1.16-.75-3.36-1.75-4.74-1.75-.22,0-.25.03-.38.19-.15.2-.94,2.05-.92,2.26.03.28,1.51,1.41,1.82,1.71,2.94,2.79,5.84,5.74,7.12,9.69.43,1.31.7,2.75.94,4.11l1-3.6.2-.26c.13-.03.22.08.26.19.11.35.2,1.27.25,1.68,1.24,11.28-1.7,23.78-8.38,32.97-.23.32-.77,1.29-1.21,1.16-.17-.08-.19-.23-.19-.39-.02-.77.25-1.94.25-2.73,0-4.66-2.1-9.99-4.8-13.73-.33-.45-.7-.95-1.11-1.33,1.38,5.15,1.35,10.45-.17,15.56-1.04,3.49-3.49,6.06-4.72,9.43,1.68-.37,3.49-1.02,5.23-.68,0,.09.01.18-.02.26-.19.56-2.67,2.49-3.29,2.96-5.61,4.28-12.57,7.51-19.53,8.82-.17-.18.83-1.64.97-1.93,1.03-2.13,1.54-3.89,1.18-6.29-.15-1-.45-2.49-1.57-2.8-1.13,4.44-5.04,8.47-8.81,10.91-.29.19-1.19.81-1.45.77-.38-.06-1.91-1.14-2.32-1.43-3.57-2.52-6.59-6.04-7.93-10.25-.78.23-1.04,1-1.25,1.71-.6,2.11-.33,4.49.57,6.47l1.53,2.84c-5.53-.91-11.14-3.26-15.9-6.2-1.78-1.1-3.93-2.57-5.47-3.96-.34-.31-2.34-2.05-.97-1.99s3.17.75,4.61.91c-.61-2.35-2.29-4.19-3.43-6.28-3.02-5.57-3.14-12.67-1.57-18.71-1.6,1.72-2.95,4.02-3.88,6.17-1.64,3.77-2.32,7.8-1.69,11.89-.16.01-.3.01-.45-.06-.62-.29-3.4-4.99-3.89-5.89C2.21,64.41.16,54.39,1.27,45.02c.04-.3.24-1.98.51-1.99l.25.31.82,3.21c.64-5.76,3.93-9.86,7.95-13.69.65-.62,1.53-1.2,2.04-1.92-.14-.45-.86-2.33-1.3-2.33l-6.73,3.39c-.63.09-.31-.81-.22-1.14.81-3.24,4.59-9.02,6.79-11.62s5.61-6.17,9.4-5.37l.14,1.56,5.66-.37c3.24-3.8,8.06-5.83,12.53-7.87.55-.78.47-.89.05-1.64-.38-.67-1.48-1.83-1.67-2.43-.05-.18-.03-.29.05-.45.25-.41,2.23-.73,2.8-.84,7.16-1.38,14.89-.79,21.84,1.33ZM41.62,9.85l7.19,2.7,6.63-2.44c1.12-.37-.02-2.72-.61-3.07-.19-.12-.52-.21-.75-.28-2.06-.59-8.84-.69-10.77.09-1.17.47-1.61,1.82-1.69,3ZM15.84,28.92c.13.08.63.03.82.01,1.55-.19,3.76-1.77,4.96-2.77.51-.43,2.22-1.91,2.5-2.38.31-.52.76-3.6.79-4.32.04-.94-.16-1.35-1.19-1.31-.56.03-3.17.49-3.62.71-.3.14-1.6,1.51-1.9,1.85-.92,1.03-1.9,2.35-2.59,3.55-.19.33-.88,1.54-.91,1.82-.03.35.89,2.7,1.14,2.85h0ZM81.81,28.92c.24-.14,1.1-2.59,1.03-2.96-.09-.48-1.15-2.24-1.48-2.73-.62-.95-2.99-3.95-3.91-4.38-.73-.34-3.67-.94-4.31-.59-.43.24-.41.66-.39,1.08.04,1,.38,3.91.91,4.66.32.47,1.81,1.68,2.33,2.1.91.73,4.75,3.43,5.83,2.82,0,0-.01,0-.01,0ZM60.57,23.63c-3.52-.17-7.79,1.45-10.38,3.84-.34.31-.86,1.26-1.36,1.26-.42,0-1.47-1.31-1.87-1.66-2.5-2.13-6.64-3.59-9.93-3.47-1.43,2.86-4.42,4.36-6.78,6.31-2.11,3.46-4.14,6.95-5.84,10.64-.09.31-.1.63-.08.95.1,1.44,2.48,4.13,3.47,5.28,1.79,2.08,3.76,4.19,5.84,5.97,2.23-.96,2.73-3.66,4.16-5.4.76-.93,1.88-1.72,2.99-2.17.14-1.13.12-2.47-.35-3.54-.69-1.57-1.13-1.11-2.5-1.36-2.35-.43-4.98-2.1-6.04-4.3-.28-.58-.72-1.74-.13-2.26.38-.33,2.27.21,2.83.35,3.15.79,6.41,2.15,8.74,4.45.27,1.35.27,2.75-.07,4.09-.58,2.22-2.32,3.55-3.39,5.47-.88,1.57-1.27,3.29-2.04,4.89-1.47,3.03-4.91,5.63-3.19,9.35l3.66,5.44h.23c1.59-.79,3.18-1.64,4.81-2.36,1.23-.54,2.56-.58,3.28-1.84,1.05-1.85.72-3.81-1.12-4.94-1.75-1.07-2.4-.72-3.89-2.58-.77-.96-1.91-2.45-.45-3.4.58-.38.88-.29,1.5-.14,2,.47,4.02,1.37,6.07,1.77,2.07-.2,4.64-1.7,6.59-1.91,1.04-.11,1.97.91,1.7,1.93-.13.49-1.52,2.3-1.93,2.72-1.3,1.34-3.6,1.16-4.43,3.07-.52,1.18-.15,3.32.79,4.21.42.39,1.99.82,2.64,1.11,1.71.76,3.38,1.62,5.1,2.38.11,0,1.18-1.49,1.33-1.71.74-1.06,2.35-3.47,2.64-4.63.87-3.44-1.74-5.32-3.18-8.06-.86-1.64-1.32-3.47-2.19-5.08-1-1.84-2.76-3.25-3.37-5.26-.43-1.43-.27-2.87-.26-4.35,1.98-2.18,5.06-3.46,7.84-4.31.67-.2,3.09-.94,3.61-.71.76.35.33,1.58.1,2.14-1.16,2.88-4.73,4.58-7.71,4.68-1.25,1.23-1.25,3.09-1.08,4.72,1.37.72,2.53,1.55,3.4,2.85,1.09,1.64,1.6,3.82,3.58,4.71.17.03.49-.28.63-.4,1.37-1.15,2.99-2.96,4.2-4.32,1.53-1.7,4.63-4.97,4.37-7.33-.09-.79-1.98-4.44-2.48-5.36-.64-1.18-2.95-5.16-3.78-5.88-1.15-1-2.67-1.8-3.86-2.85-.93-.83-1.9-1.84-2.4-2.99h-.02ZM85.7,46.43c.63,1.43,1.59,2.71,2.33,4.09,1.6,2.97,2.59,5.74,3.2,9.07.06.3.2,2.18.43,2.18.59-.67.87-1.66,1.14-2.5.55-1.72.95-3.54,1.15-5.34-2-3.18-4.84-5.9-8.25-7.5ZM11.84,46.56c-.2-.19-2.02,1.07-2.31,1.27-1.5,1.05-3.13,2.48-4.28,3.9-.31.39-1.43,1.84-1.54,2.21-.2.65.46,2.98.69,3.75.4,1.37.94,2.68,1.54,3.98.15.03.17-.2.2-.31.86-4.07,1.18-6.45,3.15-10.25.8-1.54,1.84-2.97,2.56-4.54h-.01ZM58.4,70.66c-3.2-1.55-6.49-2.95-9.9-3.97-3.21,1.19-6.36,2.53-9.39,4.12-.55.54-.91,2.72-.77,3.49.31,1.77,4.42,4.07,6.05,4.63l-.4-2.72c.17-.04.27.04.4.11,1.2.58,2.45,1.63,3.68,2.22.88.42.91.35,1.74-.08,1.28-.67,2.52-1.71,3.83-2.36.09.12-.63,2.37-.74,2.73-.05.15-.12.14.11.11,1.38-.18,4.74-2.32,5.45-3.53s.54-2.5.26-3.76c-.07-.33-.21-.66-.34-.97,0,0,.02-.02.02-.02ZM67.06,89.83c.37.33,4.5-2.16,5.1-2.57.24-.16.89-.52,1.03-.68.29-.32.65-2.64.69-3.18.17-2.76-.79-5.75-2.67-7.78-.24,1.28-.33,2.58-.56,3.86-.65,3.63-2.01,7.03-3.58,10.33v.02h-.01ZM26.5,75.75c-.22-.06-.22.09-.32.19-2.27,2.22-3.11,7.44-1.95,10.31.16.4.59.63.94.88.6.44,5.17,3.1,5.54,2.81-2.33-4.37-4.11-9.18-4.21-14.2h0Z"/>
  </g>
</svg>